<svg xmlns="http://www.w3.org/2000/svg" viewBox="0 0 511.999 511.999"><path d="M256 0C154.535 0 71.987 82.548 71.987 184.013c0 32.284 9.494 69.595 28.216 110.897 14.802 32.652 35.403 67.943 61.233 104.889 43.85 62.723 88.345 109.31 88.789 109.773 3.104 3.236 8.444 3.236 11.548 0 .444-.463 44.939-47.05 88.789-109.773 25.83-36.948 46.432-72.237 61.233-104.889 18.724-41.302 28.217-78.612 28.217-110.897C440.012 82.548 357.464 0 256 0z" fill="#f56c6c"/><path d="M185.939 392.334c-25.83-36.948-46.432-72.237-61.233-104.889-18.722-41.302-28.216-78.612-28.216-110.897 0-78.365 49.246-145.434 118.411-171.916-81.746 18.72-142.914 92.039-142.914 179.38 0 32.284 9.494 69.595 28.216 110.897 14.802 32.652 35.403 67.943 61.233 104.889 43.85 62.723 88.345 109.31 88.789 109.773 3.104 3.236 8.444 3.236 11.548 0 .125-.131 3.757-3.933 9.89-10.731-10.803-11.634-48.493-53.251-85.724-106.506z" fill="#db4d4d"/><path d="M256 39.003c-79.958 0-145.01 65.051-145.01 145.01s65.051 145.01 145.01 145.01 145.01-65.051 145.01-145.01S335.959 39.003 256 39.003z" fill="#e4dad8"/><path d="M256 55.504c-70.86 0-128.509 57.649-128.509 128.509S185.14 312.521 256 312.521s128.509-57.649 128.509-128.509S326.859 55.504 256 55.504z" fill="#f2edec"/><g fill="#fad000"><path d="M212.497 96.507a4 4 0 0 0-4 4v160.011c0 6.627 5.373 12.001 12.001 12.001 6.627 0 12.001-5.373 12.001-12.001v-76.005h8.001a8.001 8.001 0 0 0 8.001-8.001v-44.003c-.002-19.883-16.12-36.002-36.004-36.002zM320.504 96.507a8.001 8.001 0 0 0-8.001 8.001v40.003h-8.001v-40.003a8.001 8.001 0 0 0-16.002 0v40.003h-8.001v-40.003a8.001 8.001 0 0 0-16.002 0v48.003c0 8.838 7.163 16.001 16.001 16.001h4v92.006c0 6.627 5.373 12.001 12.001 12.001s12.001-5.373 12.001-12.001v-92.006h4c8.838 0 16.001-7.163 16.001-16.001v-48.003a7.995 7.995 0 0 0-7.997-8.001z"/></g></svg>